# xmcd
#
# Track frame offsets:
#	150
#	10270
#	39278
#	64403
#	86676
#	110506
#	133682
#	156477
#	182118
#	199725
#	219926
#	237544
#	258257
#	282093
#	302813
#	320419
#	335960
#
# Disc length: 4733 seconds
#
# Revision: 2
# Processed by: cddbd v1.5.2PL0 Copyright (c) Steve Scherf et al.
# Submitted via: audiograbber 1.83.01
#
DISCID=fe127b11
DTITLE=TechnoClub - Vol.26 (Talla 2XLC battles M.I.K.E - CD1)
DYEAR=2008
DGENRE=Technco/Trance
TTITLE0=Talla 2XLC - Sensuality
TTITLE1=Ocean Lab - Sirens Of The Sea (Above and Beyond Remix)
TTITLE2=C-Base - Superstring (Jorn Van Deynhoven Remix)
TTITLE3=Ferrin and Low - Westworld
TTITLE4=Majai - Phoria (Elevation Remix)
TTITLE5=Ernesto And Bastian - Super Jupiter
TTITLE6=John O'Callaghan pres. Cartel - Buenos Aires
TTITLE7=Simon Patterson - Smack
TTITLE8=Erik De Koning - Dream Flight
TTITLE9=Woody Van Eyden And Alex Morph - Turn It On (Sean Tyas Remix)
TTITLE10=Genix - Piranha
TTITLE11=Relocate feat. Sir Adrian - Times X
TTITLE12=Veracocha - Carte Blanche (Cosmic Gate Remix)
TTITLE13=Abbott and Chambers - Where Are You
TTITLE14=Digital Nature and Ade - Mirage
TTITLE15=Nish - Blue Sunshine (Sean Tyas Remix)
TTITLE16=Dobenbeck - Please Don't Go (Chris Reece To Late Remix)
EXTD=
EXTT0=
EXTT1=
EXTT2=
EXTT3=
EXTT4=
EXTT5=
EXTT6=
EXTT7=
EXTT8=
EXTT9=
EXTT10=
EXTT11=
EXTT12=
EXTT13=
EXTT14=
EXTT15=
EXTT16=
PLAYORDER=
